<?xml version="1.0" standalone="no"?>
<!DOCTYPE svg PUBLIC "-//W3C//DTD SVG 20010904//EN"
 "http://www.w3.org/TR/2001/REC-SVG-20010904/DTD/svg10.dtd">
<svg version="1.0" xmlns="http://www.w3.org/2000/svg"
 width="260.000000pt" height="260.000000pt" viewBox="0 0 260.000000 260.000000"
 preserveAspectRatio="xMidYMid meet">
<metadata>
Created by potrace 1.14, written by Peter Selinger 2001-2017
</metadata>
<g transform="translate(0.000000,260.000000) scale(0.100000,-0.100000)"
fill="#000000" stroke="none">
<path d="M0 1300 l0 -1300 1300 0 1300 0 0 1300 0 1300 -1300 0 -1300 0 0
-1300z m1927 790 c101 -14 191 -57 238 -114 54 -66 76 -141 82 -281 9 -198
-22 -264 -146 -309 l-62 -22 54 -17 c76 -24 141 -83 164 -150 15 -44 18 -84
18 -272 -1 -205 -2 -224 -23 -277 -28 -69 -73 -111 -144 -134 -45 -15 -110
-18 -430 -22 l-378 -4 0 806 0 806 274 0 c151 0 310 -5 353 -10z"/>
<path d="M1725 1818 c-3 -7 -4 -88 -3 -178 l3 -165 48 1 c26 0 52 5 58 11 26
26 38 204 19 274 -13 46 -25 56 -78 65 -31 5 -43 3 -47 -8z"/>
<path d="M1727 1214 c-4 -4 -7 -106 -7 -226 0 -246 -2 -240 72 -217 58 19 67
48 67 219 1 145 -10 206 -37 214 -40 12 -88 17 -95 10z"/>
</g>
</svg>
